<mxfile host="app.diagrams.net" modified="2023-06-16T15:21:35.112Z" agent="Mozilla/5.0 (Macintosh; Intel Mac OS X 10_15_7) AppleWebKit/537.36 (KHTML, like Gecko) Chrome/114.0.0.0 Safari/537.36" etag="eYDBHQbeacKM-971vqsQ" version="21.3.8" type="github">
  <diagram name="Page-1" id="iqe3As87bchgCNZe354T">
    <mxGraphModel dx="794" dy="456" grid="1" gridSize="10" guides="1" tooltips="1" connect="1" arrows="1" fold="1" page="1" pageScale="1" pageWidth="827" pageHeight="1169" math="0" shadow="0">
      <root>
        <mxCell id="0" />
        <mxCell id="1" parent="0" />
        <mxCell id="UsoG7qOwd3O0ct9gbPl3-1" value="" style="rounded=0;whiteSpace=wrap;html=1;" vertex="1" parent="1">
          <mxGeometry x="260" y="180" width="340" height="270" as="geometry" />
        </mxCell>
        <mxCell id="UsoG7qOwd3O0ct9gbPl3-2" value="" style="rounded=0;whiteSpace=wrap;html=1;" vertex="1" parent="1">
          <mxGeometry x="290" y="255" width="60" height="180" as="geometry" />
        </mxCell>
        <mxCell id="UsoG7qOwd3O0ct9gbPl3-3" value="" style="rounded=0;whiteSpace=wrap;html=1;" vertex="1" parent="1">
          <mxGeometry x="400" y="255" width="60" height="180" as="geometry" />
        </mxCell>
        <mxCell id="UsoG7qOwd3O0ct9gbPl3-4" value="" style="rounded=0;whiteSpace=wrap;html=1;" vertex="1" parent="1">
          <mxGeometry x="510" y="255" width="60" height="180" as="geometry" />
        </mxCell>
        <mxCell id="UsoG7qOwd3O0ct9gbPl3-5" value="" style="shape=flexArrow;endArrow=classic;html=1;rounded=0;" edge="1" parent="1">
          <mxGeometry width="50" height="50" relative="1" as="geometry">
            <mxPoint x="170" y="220" as="sourcePoint" />
            <mxPoint x="240" y="220" as="targetPoint" />
          </mxGeometry>
        </mxCell>
        <mxCell id="UsoG7qOwd3O0ct9gbPl3-6" value="" style="rounded=0;whiteSpace=wrap;html=1;" vertex="1" parent="1">
          <mxGeometry x="290" y="255" width="60" height="30" as="geometry" />
        </mxCell>
        <mxCell id="UsoG7qOwd3O0ct9gbPl3-7" value="" style="rounded=0;whiteSpace=wrap;html=1;" vertex="1" parent="1">
          <mxGeometry x="400" y="255" width="60" height="30" as="geometry" />
        </mxCell>
        <mxCell id="UsoG7qOwd3O0ct9gbPl3-8" value="" style="rounded=0;whiteSpace=wrap;html=1;" vertex="1" parent="1">
          <mxGeometry x="510" y="255" width="60" height="30" as="geometry" />
        </mxCell>
      </root>
    </mxGraphModel>
  </diagram>
</mxfile>
